<svg xmlns="http://www.w3.org/2000/svg" width="21" height="20" viewBox="0 0 21 20" fill="none">
<path fill-rule="evenodd" clip-rule="evenodd" d="M8.54069 14.2208C12.0569 14.2208 14.9074 11.3704 14.9074 7.85417C14.9074 4.33795 12.0569 1.4875 8.54069 1.4875C5.02448 1.4875 2.17402 4.33795 2.17402 7.85417C2.17402 11.3704 5.02448 14.2208 8.54069 14.2208ZM8.54069 15.5208C12.7749 15.5208 16.2074 12.0883 16.2074 7.85417C16.2074 3.61998 12.7749 0.1875 8.54069 0.1875C4.30651 0.1875 0.874023 3.61998 0.874023 7.85417C0.874023 12.0883 4.30651 15.5208 8.54069 15.5208Z" fill="#016A7F"/>
<path fill-rule="evenodd" clip-rule="evenodd" d="M19.5811 19.8138L12.8727 13.1055L13.792 12.1862L20.5003 18.8945L19.5811 19.8138Z" fill="#016A7F"/>
</svg>