<svg width="151" height="32" viewBox="0 0 151 32" fill="none" xmlns="http://www.w3.org/2000/svg">
<path d="M6.99201 17.8365C7.05251 17.2196 7.1475 16.6065 7.27656 16.0001L7.2808 15.979L7.22984 15.9841C6.3091 16.0769 4.85155 16.1842 3.77963 16.3218C1.89823 16.5675 0.185869 16.8149 0.0423229 16.9846C-0.344998 17.4405 2.23204 17.7783 6.16301 17.8289C6.43141 17.8365 6.71001 17.8365 6.99201 17.8365Z" fill="url(#paint0_linear_1502_9799)"/>
<path d="M26.7667 0C20.5713 0 14.4506 3.48876 10.6802 8.59356C10.6802 8.59356 1.88649 9.22005 1.42187 9.99683C0.033126 12.6362 0 17.0571 0 17.0571L0.00424694 17.0419C0.0120196 17.0219 0.02355 17.0036 0.0382224 16.9879C0.181769 16.819 1.89413 16.5699 3.77553 16.3242C4.85 16.1858 6.305 16.0785 7.22574 15.9865L7.275 15.9806C10.3328 15.68 16.1536 15.2646 19.4841 15.1734C27.645 14.9497 34.683 15.013 39.5628 15.2342C40.9846 6.75293 35.3914 0 26.7667 0Z" fill="url(#paint1_linear_1502_9799)"/>
<path d="M36.6919 22.4143C34.1803 22.3906 24.8931 22.3163 20.7642 22.4472C20.7472 22.4472 18.8471 22.5164 18.7894 22.5173C14.3343 22.698 10.5614 22.98 7.48828 23.2772C9.05285 28.4369 13.7007 31.9687 19.9378 31.9687C26.5095 31.9687 32.9996 28.0299 36.6936 22.4092L36.6919 22.4143Z" fill="#E52330"/>
<path d="M39.5715 15.2349C34.6909 15.0137 27.6529 14.9487 19.4903 15.1724C16.159 15.2636 10.3305 15.679 7.27692 15.9796C7.20557 16.3174 7.09685 16.8712 7.01191 17.6041C7.01191 17.6176 7.01191 17.632 7.01191 17.6472C6.98303 17.9005 6.9618 18.1462 6.94651 18.3936C6.94651 18.4087 6.94651 18.4256 6.94651 18.4417C6.93122 18.684 6.92357 18.9238 6.92188 19.1602C6.92188 19.3105 6.92188 19.4599 6.92867 19.6077C6.92867 19.7335 6.92867 19.861 6.93462 19.98C6.94566 20.2426 6.96265 20.5061 6.98898 20.7619C6.99577 20.8362 7.00936 20.9096 7.01616 20.9831C7.04079 21.1832 7.06457 21.3842 7.1011 21.5809C7.11554 21.6653 7.13082 21.7405 7.14526 21.8198C7.17924 22.0106 7.21661 22.2006 7.25908 22.3864C7.27522 22.4615 7.29306 22.5333 7.31174 22.6067C7.36016 22.8001 7.41027 22.9934 7.46633 23.1826C7.47483 23.2155 7.48417 23.2476 7.49521 23.2805C10.5674 22.9799 14.343 22.6979 18.8014 22.5206C18.8566 22.5206 20.755 22.4514 20.7737 22.4489C24.9026 22.3197 34.1889 22.3931 36.7031 22.4168L37.3486 22.4218C39.4594 22.4539 40.3215 22.4733 42.5197 22.5907C43.539 22.6447 45.214 22.7081 45.304 22.9284C45.304 22.936 45.304 22.9284 45.304 22.936C45.3018 22.9424 45.2993 22.9486 45.2963 22.9546C46.6859 20.4014 46.7063 16.1688 46.7063 16.1688C46.7777 15.8015 44.1208 15.4443 39.5817 15.24" fill="url(#paint2_linear_1502_9799)"/>
<path d="M36.6936 22.4144C32.9996 28.035 26.5095 31.9738 19.9378 31.9738C16.9742 31.9738 14.3692 31.1768 12.2831 29.7853C9.97953 28.2495 8.30964 25.9901 7.48828 23.284C10.5614 22.9834 14.3343 22.7014 18.7894 22.5241C18.8471 22.5241 20.743 22.4557 20.7634 22.454C24.8931 22.3232 34.1837 22.3975 36.6919 22.4211L36.6936 22.4144Z" fill="url(#paint3_linear_1502_9799)"/>
<path d="M37.2069 8.16875C37.6732 8.16875 38.4852 8.16875 39.0441 8.16875C37.3326 3.29361 32.7892 0.000732422 26.7662 0.000732422C20.5734 0.000732422 14.4501 3.49287 10.6797 8.5943C13.3977 8.341 16.9414 8.14089 20.4154 8.0801C21.0949 8.06912 22.3987 7.79556 23.1334 6.71482C24.4924 4.70701 25.8328 2.67556 27.7405 1.99926C27.7728 1.98575 27.8059 1.97224 27.8399 1.95957C30.7363 0.858569 34.5628 3.53509 37.2069 8.16875Z" fill="url(#paint4_linear_1502_9799)"/>
<path d="M36.6914 22.4143C36.0679 22.4084 35.0274 22.3999 33.7517 22.3915C30.7924 22.3746 26.4758 22.3602 23.3993 22.3915C22.7198 22.9428 21.9443 23.7559 21.591 24.4871C19.1974 28.5095 18.3633 32.4533 10.9634 26.4341C10.9634 26.4341 9.78365 26.3269 8.98438 26.4789C9.80023 27.7107 10.8422 28.7789 12.0558 29.6274C12.1466 29.6856 12.2256 29.7371 12.2868 29.781C12.4227 29.8717 12.5609 29.9612 12.7013 30.0495C14.7126 31.2738 17.1674 31.9695 19.9355 31.9695C26.5072 31.9737 32.9974 28.035 36.6914 22.4143Z" fill="url(#paint5_linear_1502_9799)"/>
<path d="M45.2967 22.9218C45.2066 22.7031 43.5282 22.6398 42.5124 22.5841C40.3142 22.4684 39.4546 22.4498 37.3421 22.4152L36.689 22.4102C36.3226 22.9674 35.9302 23.5069 35.5117 24.0287C41.313 23.854 45.1327 23.4504 45.2924 22.926C45.2984 22.9201 45.2967 22.9303 45.2967 22.9218Z" fill="url(#paint6_linear_1502_9799)"/>
<g clip-path="url(#clip0_1502_9799)">
<path fill-rule="evenodd" clip-rule="evenodd" d="M128.353 9.49817C133.808 8.40351 138.395 10.4921 139.228 14.6584C139.811 18.7284 136.66 22.9976 131.376 24.2214C126.376 25.1453 121.561 23.361 120.697 19.2911C119.947 15.2539 123.665 10.7899 128.353 9.49817ZM126.671 20.4317C127.922 21.6906 130.409 21.0316 132.234 18.9583C134.059 16.885 134.532 14.179 133.285 12.9201C132.038 11.6612 129.547 12.318 127.72 14.3935C125.893 16.4668 125.42 19.1728 126.671 20.4317ZM101.555 12.3859C101.06 12.1232 100.345 11.9896 99.4086 11.9896H98.4587L97.5572 16.1997H98.318C99.6373 16.1997 100.65 15.9771 101.357 15.532C102.038 15.1388 102.425 14.3853 102.346 13.6054C102.329 13.0844 102.025 12.6155 101.555 12.3859ZM91.957 23.8668C91.957 23.8668 90.5344 23.9303 90.7279 22.5838L93.2015 11.0132C93.3651 10.3293 93.9649 9.8367 94.6703 9.80687H100.66C101.623 9.80214 102.586 9.86726 103.54 10.0017C104.289 10.1022 105.017 10.3155 105.701 10.6344C106.266 10.8995 106.755 11.3024 107.122 11.8057C107.479 12.3808 107.678 13.0391 107.7 13.7148C107.806 15.3364 107.06 16.6449 105.464 17.6403C103.874 18.6386 101.59 19.0152 98.6126 19.0152H96.9658L95.9148 23.8668H91.957ZM68.0499 12.3487C67.6014 12.1093 66.9542 11.9896 66.1084 11.9896H64.7628L63.9492 15.775H65.2861C66.4426 15.775 67.3258 15.5809 67.9356 15.1926C68.5132 14.8535 68.8428 14.2133 68.7821 13.5484C68.7823 13.0437 68.4999 12.581 68.0499 12.3487ZM62.2144 23.8668H58.1797C57.9005 23.8668 56.8473 23.7551 57.0188 22.5838L59.499 11.0132C59.6636 10.3306 60.2633 9.83982 60.9677 9.81125H67.7949C68.662 9.80397 69.5286 9.86106 70.3872 9.98202C71.0645 10.0729 71.723 10.271 72.3375 10.5688C73.4191 11.0577 74.1217 12.1228 74.1427 13.3054C74.2592 14.9211 73.5578 16.0136 72.1176 16.9331C70.7852 17.6315 68.9492 17.7432 68.5095 17.752C68.5095 17.752 68.0587 17.8527 68.5776 17.984C69.0061 18.1095 69.4032 18.3236 69.743 18.6124C70.8731 19.5078 71.7021 20.4317 74.2636 23.8668H68.2104C67.2575 22.0687 66.1873 20.3347 65.0068 18.6759C64.5253 17.984 63.747 18.1022 63.4545 18.0694L62.2144 23.858V23.8668ZM146.016 21.152H150.906L150.569 22.7152C150.395 23.3775 149.803 23.8464 149.116 23.8668H141.429C141.15 23.8668 140.099 23.7551 140.268 22.5838L142.748 11.0132C142.914 10.3314 143.513 9.84127 144.217 9.81125H148.465L146.027 21.1586L146.016 21.152ZM82.6541 15.5626H89.0722L88.749 17.0382C88.5866 17.721 87.9887 18.2135 87.2847 18.2446H82.0802L81.4535 21.152H87.8805L87.5441 22.7152C87.3694 23.3764 86.7792 23.8447 86.0929 23.8668H76.8581C76.5811 23.8668 75.5279 23.7551 75.6972 22.5838L78.173 11.0132C78.337 10.329 78.9381 9.83694 79.644 9.80906H90.3123L89.9781 11.3131C89.8148 11.9963 89.2162 12.4887 88.5116 12.5195H83.3005L82.6409 15.5626H82.6541ZM122.012 9.80906L121.689 11.3153C121.542 12.0096 120.932 12.5099 120.22 12.5195H119.881C116.829 12.5304 116.636 13.358 116.051 16.1778L115.325 19.5253C114.433 23.7879 110.567 23.8689 110.242 23.8689H102.511L102.836 22.3605C102.995 21.6732 103.598 21.1781 104.305 21.1542H106.163C109.215 21.1542 109.409 20.32 109.991 17.5002L110.719 14.1527C111.638 9.90539 116.293 9.81125 117.007 9.81125L122.012 9.80906Z" fill="#041E42"/>
</g>
<defs>
<linearGradient id="paint0_linear_1502_9799" x1="-0.506168" y1="16.321" x2="-0.481936" y2="18.4198" gradientUnits="userSpaceOnUse">
<stop stop-color="#D95C13"/>
<stop offset="0.27" stop-color="#E57C0E"/>
<stop offset="0.54" stop-color="#EF950A"/>
<stop offset="0.8" stop-color="#F5A408"/>
<stop offset="1" stop-color="#F7A907"/>
</linearGradient>
<linearGradient id="paint1_linear_1502_9799" x1="-15.5845" y1="6.53364" x2="-11.0076" y2="31.2831" gradientUnits="userSpaceOnUse">
<stop stop-color="#FECD55"/>
<stop offset="0.01" stop-color="#FDCA4F"/>
<stop offset="0.14" stop-color="#F8B21E"/>
<stop offset="0.2" stop-color="#F6A80B"/>
<stop offset="0.49" stop-color="#F6A60B"/>
<stop offset="0.65" stop-color="#F49E0B"/>
<stop offset="0.77" stop-color="#F3900B"/>
<stop offset="0.88" stop-color="#F07D0B"/>
<stop offset="0.98" stop-color="#EC640B"/>
<stop offset="1" stop-color="#EB5D0B"/>
</linearGradient>
<linearGradient id="paint2_linear_1502_9799" x1="-22.9137" y1="16.6227" x2="-20.8938" y2="33.6303" gradientUnits="userSpaceOnUse">
<stop stop-color="#A8A6A6"/>
<stop offset="0.05" stop-color="#C5C3C3"/>
<stop offset="0.11" stop-color="#DEDDDD"/>
<stop offset="0.16" stop-color="#F0F0F0"/>
<stop offset="0.22" stop-color="#FBFBFB"/>
<stop offset="0.29" stop-color="white"/>
<stop offset="0.52" stop-color="#FDFCFC"/>
<stop offset="0.65" stop-color="#F4F4F4"/>
<stop offset="0.76" stop-color="#E6E6E6"/>
<stop offset="0.86" stop-color="#D3D2D2"/>
<stop offset="0.95" stop-color="#BAB8B8"/>
<stop offset="1" stop-color="#A8A6A6"/>
</linearGradient>
<linearGradient id="paint3_linear_1502_9799" x1="36.7035" y1="31.9738" x2="36.7035" y2="22.3721" gradientUnits="userSpaceOnUse">
<stop stop-color="#89181E" stop-opacity="0.3"/>
<stop offset="0.5" stop-color="#B31829" stop-opacity="0.01"/>
<stop offset="0.56" stop-color="#B01828" stop-opacity="0.06"/>
<stop offset="0.67" stop-color="#AA1827" stop-opacity="0.23"/>
<stop offset="0.8" stop-color="#9E1824" stop-opacity="0.5"/>
<stop offset="0.95" stop-color="#8F181F" stop-opacity="0.87"/>
<stop offset="1" stop-color="#89181E"/>
</linearGradient>
<linearGradient id="paint4_linear_1502_9799" x1="-1.70836" y1="5.57926" x2="1.94608" y2="19.9839" gradientUnits="userSpaceOnUse">
<stop offset="0.09" stop-color="#FECD55"/>
<stop offset="0.69" stop-color="#F6A924" stop-opacity="0.36"/>
<stop offset="1" stop-color="#F2970C" stop-opacity="0.05"/>
</linearGradient>
<linearGradient id="paint5_linear_1502_9799" x1="40.0845" y1="35.0747" x2="41.6636" y2="17.7117" gradientUnits="userSpaceOnUse">
<stop offset="0.01" stop-color="#E30335" stop-opacity="0.01"/>
<stop offset="0.13" stop-color="#CA0A2D" stop-opacity="0.22"/>
<stop offset="0.26" stop-color="#B21126" stop-opacity="0.43"/>
<stop offset="0.4" stop-color="#A21520" stop-opacity="0.58"/>
<stop offset="0.52" stop-color="#97181D" stop-opacity="0.67"/>
<stop offset="0.64" stop-color="#94191C" stop-opacity="0.7"/>
<stop offset="1" stop-color="#96191D"/>
</linearGradient>
<linearGradient id="paint6_linear_1502_9799" x1="45.2985" y1="24.0329" x2="45.2985" y2="22.4144" gradientUnits="userSpaceOnUse">
<stop offset="0.01" stop-color="#D8D9D9"/>
<stop offset="0.19" stop-color="#D1D2D2"/>
<stop offset="0.46" stop-color="#BDBEBE"/>
<stop offset="0.79" stop-color="#9D9E9E"/>
<stop offset="1" stop-color="#848685"/>
</linearGradient>
<clipPath id="clip0_1502_9799">
<rect width="93.87" height="15.25" fill="white" transform="translate(57 9.20996)"/>
</clipPath>
</defs>
</svg>
